PathFileType	4	(X/Y/Z)	1H_rest_fast_right.trc
DataRate	CameraRate	NumFrames	NumMarkers	Units	OrigDataRate	OrigDataStartFrame	OrigNumFrames
250.00	250.00	18	18	mm	250.00	3635	29078
Frame#	Time	c7	r_should	l_should	clavicle	r_upa	r_elb_l	r_elb_m	r_low	r_wri_l	r_wri_m	r_met	l_upa	l_elb_l	l_elb_m	l_low	l_wri_l	l_wri_m	l_met
	X1	Y1	Z1	X2	Y2	Z2	X3	Y3	Z3	X4	Y4	Z4	X5	Y5	Z5	X6	Y6	Z6	X7	Y7	Z7	X8	Y8	Z8	X9	Y9	Z9	X10	Y10	Z10	X11	Y11	Z11	X12	Y12	Z12	X13	Y13	Z13	X14	Y14	Z14	X15	Y15	Z15	X16	Y16	Z16	X17	Y17	Z17	X18	Y18	Z18
3635	14.53600	627.21423	1421.05579	267.23477	711.29938	1358.06311	403.65356	658.04547	1379.39429	89.44650	753.70795	1282.00232	232.18321	747.43658	1146.14868	453.76819	757.92212	1054.25403	464.15747	682.11316	1020.46869	419.16418	791.06067	869.89789	437.67593	797.05762	803.73230	405.74176	744.14221	785.85205	454.04047	852.19965	746.45673	424.32025	657.12030	1188.86475	13.36263	673.92438	1080.03198	4.68954	620.51154	1042.82385	65.61363	713.35565	914.46149	2.13984	745.36316	842.56171	30.60778	676.65149	819.69940	17.85764	771.15295	756.57214	0.78362
3636	14.54000	627.18835	1421.07153	267.23196	711.26990	1358.07373	403.65848	658.03058	1379.40906	89.45116	753.67834	1282.00745	232.18808	747.37708	1146.16003	453.79681	757.85962	1054.26257	464.19281	682.04443	1020.47040	419.17209	790.96228	869.89685	437.74234	796.96753	803.72260	405.82593	744.04779	785.85138	454.10861	852.06329	746.41913	424.40369	657.09326	1188.88794	13.35815	673.87830	1080.04834	4.67845	620.42889	1042.83130	65.58338	713.24493	914.45966	2.09579	745.21716	842.52905	30.54117	676.49872	819.70258	17.77601	770.98773	756.55615	0.70334
3637	14.54400	627.16382	1421.09277	267.22495	711.24408	1358.09070	403.65421	658.01190	1379.42188	89.45418	753.64905	1282.02148	232.18730	747.31659	1146.18140	453.81686	757.79895	1054.27747	464.21994	681.96039	1020.45667	419.17615	790.87170	869.90295	437.81323	796.87964	803.72198	405.90305	743.95862	785.85840	454.15967	851.90759	746.35437	424.46384	657.06250	1188.90491	13.35959	673.82739	1080.06274	4.66540	620.31671	1042.82373	65.53761	713.13770	914.46240	2.05785	745.05292	842.48627	30.45601	676.32806	819.68774	17.67395	770.82623	756.53986	0.62610
3638	14.54800	627.13263	1421.10791	267.22391	711.21228	1358.11023	403.65756	657.98590	1379.43066	89.46705	753.62311	1282.03613	232.19489	747.26044	1146.20776	453.84497	757.73486	1054.29529	464.25497	681.86798	1020.43439	419.19418	790.78687	869.91174	437.88550	796.78503	803.72894	405.98486	743.86774	785.86279	454.21515	851.74799	746.28998	424.53079	657.02759	1188.91333	13.37004	673.77332	1080.08008	4.65734	620.20404	1042.81128	65.49620	713.02991	914.46185	2.02041	744.88550	842.44354	30.35994	676.15295	819.66046	17.57426	770.66901	756.52032	0.55484
3639	14.55200	627.09546	1421.11157	267.22662	711.16840	1358.11621	403.66556	657.95551	1379.43481	89.47502	753.59540	1282.04919	232.20335	747.19824	1146.22803	453.86890	757.67004	1054.30957	464.28854	681.76587	1020.42627	419.23001	790.70081	869.91730	437.95767	796.68756	803.72992	406.07434	743.77277	785.87152	454.27505	851.60815	746.25146	424.62433	656.98615	1188.91724	13.37513	673.71716	1080.09460	4.65901	620.09991	1042.80652	65.47450	712.92059	914.45178	1.98801	744.73224	842.41156	30.28690	675.98987	819.63684	17.50136	770.51025	756.49811	0.48716
3640	14.55600	627.05627	1421.11597	267.23285	711.11713	1358.12683	403.67444	657.91736	1379.43835	89.48459	753.56458	1282.06421	232.21547	747.13580	1146.24878	453.88809	757.59729	1054.32874	464.32269	681.66290	1020.44275	419.28781	790.60468	869.92346	438.03293	796.58307	803.73785	406.16245	743.67285	785.87799	454.34634	851.50275	746.25592	424.74371	656.94379	1188.92554	13.38172	673.65521	1080.10071	4.65897	620.01294	1042.81873	65.48160	712.80627	914.44360	1.95445	744.59412	842.39410	30.24579	675.85046	819.63220	17.46853	770.34662	756.46606	0.42859
3641	14.56000	627.01215	1421.12378	267.24670	711.05847	1358.13574	403.68112	657.88324	1379.44946	89.49220	753.53137	1282.07800	232.22502	747.07019	1146.26965	453.91565	757.52271	1054.34460	464.35733	681.57709	1020.48517	419.36017	790.51013	869.93323	438.10217	796.47766	803.74048	406.25693	743.56879	785.88599	454.43152	851.43115	746.29126	424.88318	656.89722	1188.93628	13.38236	673.58899	1080.10327	4.65720	619.95471	1042.84998	65.49551	712.68939	914.43640	1.92270	744.47595	842.39038	30.23219	675.72870	819.64923	17.46198	770.17993	756.43451	0.37202
3642	14.56400	626.97491	1421.12878	267.26041	711.00781	1358.13647	403.69089	657.85095	1379.45483	89.49423	753.49768	1282.08374	232.23483	747.00446	1146.28650	453.94754	757.45331	1054.35303	464.39032	681.50958	1020.53595	419.43195	790.41699	869.93433	438.17395	796.37274	803.72876	406.35074	743.46326	785.89233	454.52524	851.37067	746.33099	425.01712	656.85602	1188.94690	13.37627	673.52307	1080.10583	4.65510	619.92175	1042.88708	65.51232	712.57733	914.42914	1.88664	744.37561	842.39056	30.23099	675.61725	819.67798	17.45710	770.01831	756.39966	0.31632
3643	14.56800	626.94562	1421.13110	267.26956	710.97229	1358.14465	403.70560	657.83038	1379.45801	89.49847	753.46527	1282.08228	232.24840	746.94855	1146.30591	453.98291	757.39124	1054.36401	464.42380	681.46863	1020.57288	419.47369	790.32806	869.93231	438.25198	796.26898	803.71533	406.44946	743.36053	785.89429	454.62344	851.29559	746.34833	425.13330	656.81122	1188.95325	13.37581	673.46649	1080.10645	4.65213	619.89014	1042.92700	65.51981	712.47131	914.41638	1.85451	744.26697	842.37952	30.20760	675.50598	819.70227	17.43904	769.86511	756.36493	0.25947
3644	14.57200	626.91699	1421.13721	267.27344	710.93652	1358.16089	403.71518	657.81274	1379.46301	89.50169	753.43152	1282.08142	232.26894	746.88947	1146.32080	454.01257	757.33295	1054.37695	464.45837	681.41895	1020.59399	419.49075	790.24091	869.92572	438.32709	796.17383	803.70367	406.54309	743.25000	785.90015	454.72974	851.18604	746.33392	425.23761	656.77399	1188.96069	13.37315	673.41034	1080.10779	4.64655	619.82800	1042.94214	65.49856	712.37158	914.40271	1.82488	744.14056	842.35309	30.15349	675.37909	819.71283	17.37466	769.72119	756.33484	0.19835
3645	14.57600	626.88873	1421.15015	267.27151	710.89667	1358.18518	403.72177	657.79248	1379.46594	89.49644	753.40045	1282.08289	232.28178	746.83295	1146.33606	454.03595	757.27551	1054.39502	464.48083	681.36383	1020.59534	419.48026	790.15753	869.92847	438.40027	796.07660	803.69427	406.63492	743.13470	785.92194	454.82947	851.04443	746.29437	425.32510	656.73383	1188.96814	13.36472	673.35242	1080.11206	4.63320	619.74139	1042.92297	65.45872	712.27039	914.39594	1.78585	743.99634	842.32257	30.06732	675.22968	819.70642	17.27896	769.58142	756.30603	0.14228
3646	14.58000	626.85852	1421.15186	267.26929	710.86493	1358.20752	403.72913	657.77478	1379.46411	89.49998	753.37012	1282.08545	232.29099	746.78503	1146.35681	454.05014	757.22345	1054.41394	464.49860	681.29169	1020.59137	419.46902	790.07745	869.92767	438.46844	795.98456	803.68469	406.71677	743.01410	785.94879	454.92606	850.88971	746.23572	425.39734	656.68652	1188.97253	13.35408	673.29407	1080.11169	4.61607	619.63556	1042.90295	65.41141	712.16620	914.38672	1.74701	743.85370	842.29224	29.97706	675.06787	819.67474	17.17917	769.43909	756.27783	0.08223
3647	14.58400	626.82520	1421.15479	267.26624	710.82159	1358.22412	403.73718	657.75525	1379.45813	89.50468	753.33716	1282.08618	232.29497	746.73535	1146.37610	454.06470	757.17053	1054.43213	464.51645	681.21210	1020.57776	419.47556	790.00079	869.92657	438.53409	795.89130	803.67480	406.80090	742.88940	785.97778	455.01892	850.74274	746.17908	425.47455	656.63159	1188.96838	13.34920	673.22638	1080.10583	4.59823	619.53125	1042.87488	65.37881	712.06586	914.36975	1.71510	743.71991	842.26038	29.90611	674.91211	819.62549	17.10212	769.28845	756.24750	0.02320
3648	14.58800	626.78955	1421.15894	267.26108	710.77118	1358.23535	403.74188	657.73059	1379.44324	89.50689	753.30865	1282.08972	232.29971	746.69037	1146.39148	454.06839	757.11786	1054.45142	464.52881	681.13867	1020.58270	419.50095	789.92627	869.93219	438.59494	795.80103	803.66754	406.88913	742.76685	786.01410	455.09369	850.62842	746.15356	425.57651	656.57605	1188.95837	13.34226	673.15851	1080.09692	4.58200	619.44897	1042.85620	65.36623	711.96350	914.34949	1.68434	743.59851	842.22675	29.86069	674.77350	819.58960	17.06490	769.13885	756.21393	-0.03290
3649	14.59200	626.75470	1421.16333	267.23990	710.72052	1358.25183	403.74094	657.69867	1379.43982	89.50201	753.27826	1282.09595	232.29993	746.64807	1146.42285	454.05859	757.06067	1054.47278	464.53598	681.07086	1020.61414	419.54025	789.84711	869.93988	438.65918	795.71234	803.67169	406.97702	742.64777	786.05475	455.17072	850.55450	746.16998	425.70609	656.51880	1188.95056	13.33228	673.09271	1080.09082	4.56151	619.37982	1042.86877	65.36713	711.86066	914.33295	1.65623	743.49438	842.21161	29.83666	674.65601	819.58459	17.06078	768.99469	756.18561	-0.09154
3650	14.59600	626.72089	1421.17114	267.22342	710.66907	1358.27612	403.74146	657.66681	1379.44214	89.50031	753.24908	1282.10632	232.29980	746.59729	1146.44641	454.05835	757.00684	1054.50061	464.54877	681.02063	1020.66516	419.59436	789.76794	869.95282	438.72287	795.62549	803.67407	407.06699	742.53125	786.09723	455.26636	850.50024	746.21509	425.84619	656.45819	1188.95178	13.32312	673.02802	1080.09204	4.54237	619.32916	1042.90637	65.38400	711.75989	914.32349	1.62700	743.39673	842.20471	29.83381	674.56018	819.60773	17.07314	768.85211	756.16357	-0.14530
3651	14.60000	626.69006	1421.18030	267.22400	710.61963	1358.29565	403.74304	657.64148	1379.45056	89.49870	753.21741	1282.11804	232.30418	746.53998	1146.46826	454.07089	756.94836	1054.52185	464.56979	680.98169	1020.72015	419.64584	789.68292	869.96124	438.79651	795.53552	803.67517	407.15857	742.41650	786.13757	455.37442	850.44159	746.26038	425.98380	656.40521	1188.96069	13.31677	672.96771	1080.09766	4.53039	619.29431	1042.95093	65.39707	711.66229	914.31812	1.60197	743.30627	842.20721	29.83272	674.47327	819.63531	17.08536	768.71259	756.14453	-0.18668
3652	14.60400	626.66125	1421.19287	267.22949	710.58020	1358.31494	403.74762	657.62054	1379.46130	89.49059	753.17969	1282.12231	232.31100	746.48743	1146.49133	454.09088	756.88635	1054.54004	464.60001	680.94611	1020.75574	419.67639	789.59344	869.96332	438.88309	795.44379	803.66919	407.25922	742.31097	786.16785	455.47653	850.36334	746.28174	426.10818	656.36322	1188.97485	13.31042	672.90863	1080.09717	4.51809	619.24976	1042.98621	65.39722	711.56946	914.31287	1.57982	743.20844	842.20575	29.81941	674.37347	819.65991	17.06884	768.58148	756.12103	-0.22152
